<?xml version="1.0" standalone="no"?>
<!DOCTYPE svg PUBLIC "-//W3C//DTD SVG 20010904//EN"
 "http://www.w3.org/TR/2001/REC-SVG-20010904/DTD/svg10.dtd">
<svg version="1.0" xmlns="http://www.w3.org/2000/svg"
 width="1707.000000pt" height="1707.000000pt" viewBox="0 0 1707.000000 1707.000000"
 preserveAspectRatio="xMidYMid meet">
<metadata>
Created by potrace 1.11, written by Peter Selinger 2001-2013
</metadata>
<g transform="translate(0.000000,1707.000000) scale(0.100000,-0.100000)"
fill="#000000" stroke="none">
<path d="M9497 16803 c-1 0 -56 -3 -122 -6 -80 -3 -133 -10 -159 -21 -43 -18
-83 -24 -196 -31 -41 -2 -108 -6 -148 -9 -47 -3 -80 -10 -90 -20 -18 -15 -61
-27 -122 -31 -19 -2 -62 -6 -95 -10 -33 -4 -65 -7 -72 -8 -7 0 -10 -4 -7 -9 7
-10 -41 -29 -86 -33 -19 -2 -57 -7 -85 -10 -27 -4 -55 -7 -62 -8 -7 0 -11 -5
-10 -10 3 -14 -76 -37 -136 -40 -30 -2 -57 -11 -74 -25 -15 -12 -32 -22 -38
-23 -5 0 -19 -3 -30 -6 -11 -3 -36 -6 -55 -6 -19 -1 -40 -6 -47 -12 -34 -29
-42 -33 -74 -41 -19 -4 -46 -8 -60 -8 -15 -1 -36 -9 -47 -19 -22 -20 -110 -50
-123 -42 -4 3 -17 -3 -28 -14 -29 -29 -86 -51 -117 -45 -14 3 -23 1 -21 -3 3
-4 -1 -14 -9 -21 -8 -7 -14 -9 -14 -5 0 4 -4 3 -8 -2 -12 -17 -58 -34 -86 -31
-18 2 -30 -3 -37 -16 -11 -21 -51 -40 -89 -44 -14 -1 -28 -2 -32 -3 -5 -1 -8
-7 -8 -15 0 -17 -83 -51 -100 -41 -7 4 -13 -1 -16 -12 -7 -24 -33 -41 -76 -48
-18 -4 -42 -17 -53 -32 -14 -16 -33 -26 -54 -28 -19 -2 -38 -10 -43 -19 -8
-14 -59 -47 -73 -46 -21 1 -25 -2 -25 -14 0 -14 -53 -40 -77 -39 -7 0 -13 -3
-13 -9 0 -5 -5 -6 -10 -3 -6 4 -10 3 -9 -2 3 -18 -1 -36 -7 -30 -4 3 -13 0
-20 -8 -8 -8 -23 -12 -34 -10 -11 2 -25 -4 -33 -16 -8 -10 -16 -16 -19 -13 -4
3 -9 -3 -12 -14 -5 -14 -14 -19 -31 -17 -15 1 -25 -3 -25 -10 0 -16 -43 -44
-72 -48 -25 -2 -48 -18 -42 -28 6 -10 -21 -29 -46 -34 -13 -2 -29 -14 -37 -25
-8 -11 -21 -20 -29 -20 -8 0 -14 -5 -14 -11 0 -5 -5 -7 -11 -3 -6 4 -26 -10
-46 -31 -20 -22 -39 -35 -48 -31 -9 3 -15 0 -15 -8 0 -16 -41 -45 -70 -49 -12
-2 -32 -16 -44 -32 -13 -16 -31 -30 -42 -31 -10 -2 -20 -7 -22 -12 -7 -21 -28
-41 -46 -44 -11 -2 -35 -16 -53 -33 -18 -16 -39 -30 -46 -30 -6 0 -16 -10 -22
-22 -5 -13 -15 -23 -22 -23 -7 0 -13 -5 -13 -11 0 -5 -5 -7 -10 -4 -6 3 -18
-7 -28 -24 -9 -17 -25 -31 -35 -31 -9 0 -25 -9 -35 -21 -9 -12 -36 -29 -59
-40 -24 -10 -43 -25 -43 -33 0 -9 -9 -20 -20 -26 -11 -6 -20 -8 -20 -5 0 3 -6
0 -14 -7 -8 -7 -12 -16 -10 -20 6 -10 -52 -48 -61 -40 -5 4 -5 -1 -2 -10 4
-12 -1 -21 -16 -29 -12 -6 -33 -22 -47 -35 -73 -69 -101 -94 -108 -94 -5 0
-15 -11 -22 -25 -7 -14 -18 -25 -24 -25 -13 0 -166 -148 -166 -161 0 -5 -4 -9
-10 -9 -10 0 -86 -75 -110 -109 -8 -12 -21 -21 -29 -21 -8 0 -11 -3 -8 -7 4
-3 -11 -23 -33 -45 -23 -21 -38 -38 -34 -38 4 0 -1 -9 -11 -20 -10 -11 -24
-20 -32 -20 -7 0 -13 -6 -13 -14 0 -7 -15 -28 -32 -45 -18 -18 -33 -36 -33
-42 0 -5 -4 -9 -8 -9 -10 1 -37 -26 -37 -37 0 -5 -9 -16 -20 -26 -11 -9 -20
-14 -20 -12 0 3 -6 0 -14 -7 -8 -7 -12 -16 -10 -19 2 -3 -15 -23 -36 -44 -22
-22 -40 -42 -40 -46 0 -4 -13 -22 -30 -40 -16 -18 -27 -36 -24 -41 3 -4 0 -8
-5 -8 -6 0 -10 -3 -8 -7 1 -5 -2 -9 -6 -10 -15 -4 -37 -32 -37 -46 0 -18 -24
-39 -33 -30 -4 3 -7 -1 -7 -10 0 -9 -6 -16 -12 -14 -7 1 -12 -4 -10 -12 1 -7
-8 -23 -22 -35 -13 -11 -31 -38 -39 -58 -9 -20 -25 -43 -36 -50 -12 -7 -21
-20 -21 -30 0 -9 -13 -27 -28 -40 -16 -13 -32 -36 -35 -50 -4 -15 -18 -40 -32
-56 -14 -17 -25 -34 -25 -39 0 -14 -36 -54 -43 -47 -5 5 -19 -44 -18 -63 0 -5
-13 -21 -28 -38 -16 -16 -32 -41 -36 -55 -5 -14 -15 -31 -24 -38 -12 -10 -12
-12 -1 -6 11 6 11 3 -2 -12 -10 -11 -24 -36 -33 -57 -8 -20 -20 -37 -26 -37
-5 0 -7 -4 -4 -10 3 -5 1 -10 -4 -10 -6 0 -10 -3 -9 -7 3 -16 -15 -63 -24 -63
-5 0 -6 -5 -3 -10 3 -6 -1 -13 -9 -16 -9 -3 -13 -10 -10 -15 3 -5 1 -9 -4 -9
-10 0 -12 -10 -14 -74 -2 -36 -8 -47 -30 -62 -26 -18 -30 -28 -31 -81 -1 -13
-4 -23 -8 -23 -4 0 -6 -8 -5 -17 2 -10 -7 -31 -20 -46 -20 -24 -22 -31 -11
-47 6 -11 15 -20 18 -20 3 0 5 -10 4 -22 -1 -13 -3 -30 -4 -38 0 -8 -14 -21
-30 -28 -26 -11 -28 -17 -30 -73 -1 -34 -5 -69 -10 -78 -19 -37 13 -52 64 -29
17 7 29 24 36 51 15 56 31 87 41 81 5 -3 8 -2 7 3 -6 25 26 104 47 118 33 22
33 69 -1 91 -23 15 -38 43 -16 29 5 -3 12 -1 15 3 3 5 22 9 43 10 23 1 43 8
50 19 7 9 13 13 13 9 0 -11 25 16 40 44 7 14 21 31 32 38 10 7 18 19 18 26 0
8 17 32 38 54 20 23 51 58 67 78 17 20 42 50 57 65 16 16 28 33 28 39 0 5 3
10 8 10 4 0 41 32 82 71 41 39 104 96 139 127 35 32 75 69 90 83 14 15 53 48
86 74 33 26 69 56 80 66 11 11 37 35 58 54 21 19 44 35 52 35 8 0 15 4 15 9 0
4 40 38 90 75 49 36 90 71 90 76 0 6 6 10 13 10 6 0 28 14 47 30 19 16 38 30
41 30 3 0 26 16 50 35 24 19 49 35 55 35 7 0 19 11 28 25 9 14 25 25 36 25 11
0 20 4 20 8 0 4 24 23 54 41 30 18 62 41 72 52 9 10 21 19 27 19 13 0 127 75
152 100 12 11 26 20 33 20 7 0 35 16 63 35 28 19 57 35 63 35 7 0 22 11 34 25
12 14 30 25 40 25 10 0 33 13 52 30 19 16 42 29 51 30 9 0 34 13 55 29 22 15
56 34 77 40 20 7 37 16 37 20 0 5 29 20 65 36 36 15 65 31 65 35 0 4 20 14 45
21 25 7 45 17 45 22 0 4 5 5 10 2 6 -3 10 -2 10 3 0 12 72 42 100 42 10 0 23
6 27 13 9 15 53 33 103 42 32 6 60 15 100 35 42 20 103 -15 116 -67 6 -22 5
-32 -9 -88 -3 -11 -8 -33 -12 -50 -8 -37 -27 -78 -40 -87 -5 -4 -10 -11 -11
-15 -2 -30 -27 -92 -37 -96 -8 -3 -24 -33 -36 -66 -12 -34 -26 -61 -31 -61 -5
0 -12 -10 -16 -22 -4 -13 -5 -23 -3 -23 2 0 -6 -13 -17 -30 -12 -16 -36 -59
-53 -95 -17 -36 -35 -72 -40 -80 -5 -8 -17 -36 -26 -63 -9 -26 -20 -45 -25
-42 -4 2 -15 -22 -24 -54 -9 -32 -25 -66 -35 -75 -11 -10 -22 -38 -26 -66 -4
-27 -14 -55 -22 -62 -17 -14 -33 -50 -40 -92 -2 -16 -15 -45 -28 -65 -13 -20
-27 -54 -31 -76 -4 -22 -14 -51 -24 -65 -21 -31 -29 -53 -36 -99 -3 -20 -14
-47 -23 -61 -23 -32 -32 -56 -37 -99 -3 -19 -11 -46 -19 -60 -25 -46 -33 -67
-38 -99 -7 -42 -28 -106 -37 -112 -5 -3 -15 -30 -23 -61 -16 -64 -19 -67 -145
-195 -85 -86 -118 -113 -206 -169 -17 -10 -37 -25 -45 -33 -8 -8 -31 -25 -53
-38 -21 -13 -38 -28 -38 -34 0 -5 -16 -17 -36 -26 -20 -9 -38 -23 -41 -31 -3
-7 -10 -13 -17 -13 -6 0 -32 -18 -56 -40 -24 -22 -47 -40 -50 -40 -3 0 -36
-30 -75 -65 -38 -36 -73 -65 -77 -65 -5 0 -8 -7 -8 -15 0 -8 -5 -15 -11 -15
-11 0 -63 -52 -129 -130 -19 -23 -50 -58 -67 -77 -18 -20 -33 -42 -33 -49 0
-7 -10 -20 -22 -28 -12 -9 -19 -16 -15 -16 9 0 -20 -47 -49 -80 -13 -14 -30
-41 -38 -62 -9 -20 -19 -38 -23 -40 -5 -1 -19 -27 -32 -55 -14 -29 -28 -53
-32 -53 -4 0 -13 -17 -19 -37 -7 -21 -23 -54 -36 -73 -12 -19 -25 -48 -28 -64
-3 -15 -13 -40 -23 -55 -26 -38 -43 -80 -43 -105 0 -12 -9 -32 -19 -43 -11
-11 -25 -49 -32 -84 -6 -35 -17 -71 -23 -79 -17 -21 -33 -76 -42 -135 -4 -27
-15 -74 -25 -102 -10 -29 -16 -53 -13 -53 3 0 0 -8 -5 -19 -6 -10 -13 -49 -16
-87 -3 -38 -8 -86 -11 -107 -22 -147 -27 -202 -26 -337 1 -75 4 -151 8 -170 3
-19 8 -46 9 -60 2 -14 7 -41 10 -60 3 -19 7 -57 10 -85 6 -66 7 -70 33 -137
12 -32 24 -69 26 -83 8 -45 27 -95 36 -95 7 0 11 -12 25 -62 2 -5 3 -14 4 -21
0 -7 14 -27 31 -45 16 -18 30 -40 30 -49 0 -9 11 -30 24 -47 13 -17 26 -41 30
-53 4 -12 27 -42 51 -67 33 -33 50 -43 65 -39 42 11 46 69 7 102 -9 7 -23 34
-32 61 -9 26 -22 51 -30 54 -8 3 -19 24 -25 48 -6 24 -22 66 -35 93 -13 28
-26 68 -30 90 -3 22 -16 67 -29 100 -17 41 -26 92 -31 160 -4 55 -9 104 -12
109 -6 10 -9 27 -19 116 -14 128 -4 345 19 446 3 11 8 61 11 110 8 112 13 139
36 189 10 23 21 63 25 90 9 68 24 115 37 115 6 0 8 3 5 7 -4 3 -2 12 3 18 6 7
13 32 16 56 3 24 11 49 18 54 12 10 47 69 46 80 -1 27 3 37 20 53 11 10 26 38
35 62 9 25 21 50 28 55 7 6 23 31 36 58 13 26 27 47 32 47 5 0 15 16 23 35 8
19 22 38 31 41 8 3 15 12 15 18 0 19 265 296 283 296 5 0 18 9 28 21 10 12 31
29 48 38 16 9 48 26 70 39 23 12 41 20 41 17 0 -3 18 6 39 19 22 14 50 28 64
31 44 11 185 12 211 1 38 -17 92 -103 105 -171 12 -61 14 -70 27 -165 15 -100
7 -509 -12 -610 -7 -38 -13 -97 -19 -185 -6 -92 -11 -138 -20 -180 -3 -16 -8
-41 -10 -55 -6 -35 -13 -69 -19 -88 -3 -9 -8 -46 -11 -81 -3 -34 -10 -84 -15
-110 -10 -48 -12 -58 -29 -131 -5 -25 -12 -79 -15 -120 -11 -144 -18 -215 -23
-223 -2 -4 -6 -22 -9 -40 -2 -18 -6 -54 -10 -82 -3 -27 -9 -75 -13 -105 -8
-66 -6 -638 2 -695 4 -22 13 -59 21 -82 8 -23 12 -44 9 -47 -4 -3 -2 -6 3 -6
5 0 11 -13 12 -30 5 -71 37 -99 82 -70 15 9 18 81 5 160 -14 89 -19 138 -20
175 0 22 -4 43 -9 47 -11 7 -13 253 -3 353 7 76 13 111 27 165 5 19 12 89 15
155 7 158 13 201 35 252 11 24 22 82 25 130 4 49 11 96 16 106 6 9 7 17 4 17
-3 0 1 10 9 23 14 22 27 69 31 117 9 90 19 137 32 153 9 9 13 17 9 17 -4 0 -2
8 3 18 5 10 12 43 15 73 11 113 19 159 27 165 5 3 9 15 9 28 0 12 3 26 7 30 8
8 11 22 18 106 10 105 13 127 36 233 30 137 32 425 4 490 -14 33 -7 179 10
206 2 4 7 41 11 82 4 47 15 90 30 119 12 25 26 59 30 75 3 17 11 35 18 40 16
15 36 52 36 68 0 7 8 22 19 33 10 11 30 38 44 60 14 21 34 49 46 61 12 12 21
27 21 32 0 5 8 16 18 23 10 7 27 25 36 41 10 15 23 27 28 27 5 0 24 15 41 33
18 18 48 44 67 59 19 15 52 40 73 57 21 17 48 33 58 36 11 4 31 17 44 31 13
13 32 24 43 24 10 0 33 11 52 25 18 13 57 31 86 40 29 8 59 22 67 29 8 8 32
17 53 21 78 13 140 28 166 42 43 21 217 34 473 35 245 2 409 -14 466 -43 21
-10 52 -21 70 -24 64 -11 146 -83 159 -139 8 -34 5 -40 -49 -106 -31 -38 -63
-71 -71 -74 -9 -3 -30 -18 -47 -33 -18 -16 -60 -46 -95 -68 -62 -39 -93 -64
-150 -117 -16 -16 -32 -28 -34 -28 -3 0 -20 -15 -38 -32 -18 -18 -54 -52 -79
-76 -26 -24 -47 -48 -47 -53 0 -5 -4 -9 -9 -9 -10 0 -11 -1 -91 -91 -30 -34
-70 -76 -87 -94 -18 -17 -33 -35 -33 -39 0 -4 -15 -23 -32 -41 -46 -48 -68
-74 -108 -129 -19 -26 -50 -65 -67 -86 -18 -20 -33 -42 -33 -47 0 -5 -12 -19
-26 -32 -14 -12 -32 -38 -40 -57 -8 -19 -18 -34 -23 -34 -4 0 -18 -20 -31 -45
-13 -25 -29 -45 -36 -45 -7 0 -15 -8 -18 -18 -7 -22 -66 -117 -98 -157 -13
-16 -31 -46 -40 -67 -9 -21 -21 -38 -26 -38 -6 0 -13 -11 -16 -25 -3 -13 -20
-40 -36 -59 -17 -18 -30 -41 -30 -49 0 -9 -11 -29 -25 -45 -14 -17 -32 -49
-40 -73 -8 -23 -21 -47 -29 -53 -7 -6 -21 -31 -30 -56 -10 -25 -24 -52 -32
-60 -7 -9 -20 -35 -28 -58 -8 -23 -24 -54 -35 -69 -11 -15 -23 -44 -26 -63 -3
-19 -14 -44 -25 -55 -10 -11 -23 -40 -30 -65 -6 -25 -22 -63 -35 -85 -13 -22
-27 -58 -31 -80 -4 -22 -16 -53 -26 -68 -22 -30 -49 -122 -40 -131 3 -3 1 -6
-5 -6 -14 0 -41 -66 -48 -115 -6 -47 -24 -95 -35 -95 -9 0 -21 -51 -35 -147
-3 -23 -12 -46 -19 -52 -7 -6 -12 -21 -11 -34 1 -12 3 -27 4 -34 1 -13 63 -29
96 -24 11 1 42 27 69 57 45 49 50 60 53 111 4 46 10 63 34 87 20 21 29 40 29
62 0 38 9 46 59 49 20 2 41 4 48 4 14 1 28 38 24 67 -1 12 11 35 28 53 19 21
31 44 31 61 0 20 11 36 43 62 23 19 49 37 58 40 9 4 26 26 38 50 12 23 37 63
56 88 20 25 42 60 51 79 9 19 27 43 40 53 13 11 24 30 24 42 0 21 20 47 100
133 17 17 30 35 30 40 0 5 11 20 25 33 14 13 25 29 25 35 0 6 16 28 35 48 19
20 35 41 35 45 0 5 11 15 25 22 14 7 25 18 25 24 0 6 11 22 25 36 300 304 391
392 523 508 20 17 46 40 57 51 11 10 30 23 41 29 12 6 32 20 45 31 13 11 47
38 74 60 28 22 59 48 69 58 11 10 36 27 57 38 21 11 64 41 97 66 33 26 70 50
83 54 13 4 35 17 49 30 14 12 41 31 60 40 19 10 37 21 40 24 3 4 25 15 49 26
25 11 52 27 60 37 9 9 28 18 42 20 15 2 42 15 60 29 19 14 47 29 63 33 16 4
40 16 54 27 14 10 41 23 61 29 20 5 52 20 71 32 19 12 40 23 47 24 24 4 88 27
93 33 9 11 64 33 95 38 17 2 46 14 65 25 19 11 44 22 55 24 11 2 30 6 41 8 12
2 41 15 65 27 24 13 55 24 69 26 14 2 54 8 90 14 36 6 74 12 85 13 11 1 40 9
65 16 46 13 54 14 200 24 47 4 114 9 150 13 135 14 582 6 667 -11 12 -3 50 -6
85 -7 67 -3 138 -17 138 -28 0 -4 8 -7 18 -8 49 -3 193 -33 213 -44 13 -7 26
-14 29 -14 11 -3 67 -26 88 -37 25 -13 134 -116 165 -156 10 -13 22 -33 26
-45 28 -72 45 -107 53 -107 4 0 7 -3 6 -7 -1 -8 6 -55 23 -133 13 -66 20 -109
25 -165 6 -60 5 -270 -1 -305 -4 -28 -12 -62 -16 -70 -1 -3 -3 -9 -4 -15 -2
-5 -4 -12 -5 -15 -6 -16 -10 -55 -14 -129 -3 -45 -11 -90 -18 -99 -7 -9 -20
-25 -28 -36 -8 -11 -26 -31 -40 -45 -14 -14 -32 -38 -40 -53 -23 -39 -110
-146 -110 -134 0 5 -150 -145 -301 -300 -53 -55 -120 -119 -149 -144 -30 -25
-80 -71 -113 -102 -33 -32 -63 -58 -67 -58 -3 0 -12 -11 -19 -24 -7 -13 -24
-30 -37 -37 -13 -7 -24 -16 -24 -20 0 -9 -206 -219 -215 -219 -3 0 -17 -11
-30 -24 -13 -14 -33 -27 -44 -31 -11 -3 -23 -15 -26 -25 -3 -10 -14 -22 -24
-25 -10 -3 -24 -16 -30 -29 -7 -13 -24 -30 -37 -37 -13 -6 -26 -20 -29 -28 -3
-9 -18 -25 -35 -34 -16 -10 -30 -24 -30 -32 0 -7 -9 -17 -20 -20 -11 -4 -27
-20 -35 -36 -9 -16 -19 -29 -24 -29 -4 0 -22 -12 -39 -27 -17 -16 -45 -39 -62
-53 -17 -14 -73 -68 -125 -120 -132 -134 -155 -160 -147 -160 4 -1 -8 -7 -25
-15 -18 -8 -33 -19 -33 -25 0 -6 -13 -16 -29 -21 -17 -6 -48 -35 -72 -65 -24
-32 -53 -57 -68 -61 -22 -5 -187 -123 -201 -144 -13 -19 -88 -106 -117 -137
-18 -19 -33 -37 -33 -40 0 -4 -23 -20 -50 -37 -28 -16 -50 -33 -50 -37 0 -4
-15 -14 -34 -22 -19 -8 -39 -24 -45 -35 -7 -11 -15 -20 -19 -19 -7 2 -62 -31
-72 -43 -3 -3 -19 -13 -36 -22 -17 -9 -36 -23 -44 -32 -7 -8 -29 -23 -49 -32
-20 -9 -49 -25 -64 -36 -15 -10 -43 -23 -62 -28 -19 -5 -41 -17 -50 -25 -8 -9
-15 -12 -15 -8 0 5 -5 3 -12 -4 -7 -7 -22 -12 -34 -12 -32 0 -62 -30 -68 -68
-5 -35 -26 -58 -61 -67 -48 -11 -90 -13 -106 -5 -22 12 -150 15 -214 5 -48 -7
-59 -9 -107 -20 -12 -2 -28 1 -36 8 -23 19 -993 12 -1142 -8 -43 -6 -247 -16
-432 -21 -96 -2 -146 -8 -166 -18 -22 -12 -87 -16 -87 -6 0 1 -11 3 -25 4 -71
7 -121 19 -133 31 -19 19 -58 -1 -76 -40 -13 -26 -12 -33 9 -72 25 -46 29 -49
110 -58 30 -4 79 -18 107 -32 31 -14 79 -26 115 -29 35 -3 79 -10 98 -17 19
-6 37 -12 40 -12 3 -1 25 -7 50 -14 25 -8 65 -15 90 -17 136 -11 162 -14 194
-28 20 -8 36 -12 36 -9 0 3 6 1 13 -5 6 -6 15 -10 20 -10 4 -1 31 -3 60 -6 97
-10 162 -16 237 -21 71 -5 87 -7 170 -19 113 -16 125 -20 114 -37 -3 -5 -2 -8
3 -7 4 1 18 -3 30 -10 12 -7 26 -11 30 -11 12 3 45 -12 71 -32 22 -17 50 -61
87 -139 20 -41 38 -62 131 -154 38 -39 73 -78 76 -88 4 -9 -1 -31 -11 -50 -10
-18 -33 -61 -51 -95 -18 -35 -38 -63 -46 -63 -7 0 -11 -6 -9 -12 8 -21 -37
-94 -97 -160 -16 -17 -28 -34 -28 -39 0 -31 -16 -49 -44 -49 -66 0 -116 -32
-181 -115 -16 -21 -47 -59 -68 -84 -20 -25 -42 -51 -47 -58 -6 -7 -22 -29 -36
-50 -14 -20 -31 -44 -39 -53 -13 -13 -40 -45 -123 -148 -15 -18 -44 -52 -64
-75 -21 -23 -38 -45 -38 -48 0 -3 -11 -19 -25 -35 -46 -54 -50 -59 -69 -89
-11 -17 -30 -38 -42 -48 -13 -10 -26 -27 -30 -39 -3 -12 -17 -32 -30 -45 -13
-13 -24 -30 -24 -38 0 -8 -8 -20 -18 -27 -10 -7 -29 -29 -42 -48 -13 -19 -30
-39 -37 -43 -7 -4 -21 -28 -32 -52 -11 -25 -24 -45 -30 -45 -5 0 -13 -10 -17
-22 -4 -13 -22 -40 -40 -61 -19 -20 -34 -43 -34 -51 0 -7 -7 -20 -16 -27 -9
-8 -25 -33 -35 -56 -10 -24 -27 -53 -39 -65 -11 -12 -20 -31 -20 -43 0 -11
-13 -35 -29 -52 -18 -20 -31 -48 -35 -76 -4 -24 -15 -53 -25 -64 -20 -21 -29
-44 -36 -89 -8 -53 -11 -61 -26 -85 -9 -13 -19 -35 -24 -47 -14 -47 -20 -315
-10 -545 3 -88 9 -118 29 -163 15 -32 27 -81 30 -119 5 -60 21 -105 38 -105 7
0 14 -30 23 -90 7 -52 15 -75 29 -85 14 -11 47 -81 44 -93 -4 -14 15 -55 33
-73 10 -10 19 -32 19 -48 0 -18 10 -41 25 -57 14 -15 30 -45 36 -66 5 -21 16
-41 24 -44 8 -3 22 -27 31 -52 10 -26 25 -56 34 -67 10 -11 25 -35 34 -53 9
-17 20 -32 25 -32 4 0 14 -12 21 -27 8 -16 24 -39 37 -53 12 -14 42 -47 65
-74 75 -87 83 -92 120 -88 11 2 29 -26 34 -53 6 -33 19 -47 62 -64 18 -8 38
-21 45 -31 7 -9 30 -26 53 -38 22 -11 46 -27 53 -35 6 -8 27 -18 47 -21 19 -4
40 -16 47 -27 6 -11 30 -24 52 -30 22 -6 51 -21 65 -34 14 -13 41 -26 60 -30
19 -4 48 -18 63 -31 16 -13 35 -25 43 -25 8 -1 19 -3 24 -4 6 -1 16 -3 23 -4
6 0 25 -12 40 -25 16 -14 43 -28 60 -32 18 -3 44 -17 59 -29 15 -13 42 -26 59
-30 18 -4 41 -15 51 -25 11 -10 39 -21 62 -24 27 -4 52 -16 67 -32 13 -13 29
-22 37 -19 14 5 82 -22 92 -36 7 -10 86 -44 123 -53 15 -3 27 -11 27 -16 0
-11 64 -40 88 -40 9 0 25 -9 37 -20 14 -13 37 -21 61 -22 29 0 48 -9 74 -33
19 -18 49 -36 66 -40 17 -3 46 -17 64 -30 18 -13 45 -27 61 -30 16 -4 35 -15
42 -26 8 -10 29 -24 48 -30 19 -7 43 -19 54 -28 11 -9 34 -23 50 -30 17 -7 37
-17 45 -22 8 -5 28 -17 44 -27 15 -9 47 -29 70 -44 22 -15 48 -28 57 -28 9 0
33 -11 53 -25 20 -14 48 -25 62 -25 20 0 29 -8 40 -38 10 -24 33 -50 67 -74
29 -21 61 -44 72 -53 66 -50 111 -82 131 -93 13 -7 29 -22 34 -33 6 -10 16
-19 22 -19 6 0 26 -15 43 -33 18 -17 39 -38 46 -44 15 -14 18 -17 87 -86 26
-26 54 -56 62 -65 75 -90 100 -122 100 -127 0 -4 18 -27 40 -52 22 -25 40 -52
40 -59 0 -7 12 -26 26 -43 14 -17 23 -31 19 -31 -3 0 11 -18 31 -40 21 -22 44
-54 52 -70 8 -17 18 -30 23 -30 5 0 9 -7 9 -15 0 -8 5 -15 11 -15 5 0 7 -4 4
-10 -3 -5 -1 -10 5 -10 6 0 8 -4 5 -10 -3 -5 -2 -10 4 -10 6 0 26 -17 46 -38
37 -40 56 -45 92 -22 21 14 21 15 5 45 -9 16 -21 33 -25 36 -5 3 -8 8 -7 10 1
2 -3 17 -9 32 -6 16 -11 34 -11 41 0 7 -9 25 -20 38 -10 14 -16 28 -13 32 3 3
2 6 -4 6 -6 0 -14 16 -18 37 -3 20 -17 52 -31 72 -13 20 -24 46 -24 58 0 12
-10 30 -23 40 -12 10 -31 39 -41 65 -10 27 -24 52 -33 56 -8 5 -15 13 -15 18
-1 20 -20 64 -28 64 -4 0 -16 20 -27 45 -10 25 -21 45 -25 45 -4 0 -17 21 -30
47 -13 26 -31 56 -41 67 -56 64 -77 92 -77 102 0 7 -14 27 -31 45 -17 19 -34
41 -38 51 -6 16 -68 89 -156 183 -22 24 -51 57 -65 74 -14 17 -51 57 -82 90
-32 33 -58 63 -58 68 0 4 -14 16 -30 25 -17 9 -30 23 -30 31 0 8 -11 19 -25
25 -14 7 -30 23 -37 37 -6 14 -15 25 -19 25 -4 0 -63 54 -131 119 -182 176
-240 231 -244 231 -2 0 -30 26 -61 57 -32 31 -86 83 -120 114 -33 32 -58 60
-55 63 3 3 -2 6 -11 6 -8 0 -17 4 -19 9 -1 5 -49 57 -105 114 -56 58 -99 108
-96 111 4 3 -1 6 -9 6 -9 0 -22 13 -29 29 -8 17 -23 35 -35 42 -13 6 -25 21
-28 33 -3 11 -25 42 -48 68 -24 25 -52 61 -62 80 -11 18 -30 41 -42 50 -12 10
-25 29 -28 42 -3 14 -17 36 -31 50 -14 14 -25 30 -25 36 0 6 -9 20 -20 32 -10
11 -26 35 -34 52 -8 18 -27 44 -41 60 -14 15 -25 34 -25 43 0 29 -24 83 -36
83 -11 0 -20 24 -30 80 -10 54 -25 100 -37 112 -7 7 -14 29 -15 48 -2 19 -16
56 -31 81 -20 33 -28 60 -30 100 -2 73 -10 111 -25 129 -19 21 -24 43 -31 130
-7 94 -9 102 -18 118 -5 6 -5 12 -1 12 3 0 0 10 -9 23 -17 27 -25 70 -33 192
-11 181 -19 239 -39 305 -8 25 -14 61 -15 80 -1 19 -2 60 -4 90 -2 55 11 110
27 110 4 0 3 8 -2 18 -9 17 -6 191 4 242 21 104 23 119 24 207 1 37 6 67 14
75 32 31 43 66 46 139 1 14 12 39 26 55 14 16 26 32 26 37 1 4 3 16 4 27 1 11
3 24 4 29 0 4 12 20 26 35 14 15 32 42 40 59 25 53 49 90 78 122 15 16 32 46
38 65 6 22 26 48 54 70 24 19 44 40 44 47 1 9 146 165 213 228 5 6 38 37 72
71 33 33 76 66 94 73 17 8 32 17 32 22 0 5 16 17 35 26 19 9 37 25 40 34 3 10
16 21 28 25 12 4 29 17 39 29 9 12 32 25 50 29 17 3 43 16 56 29 20 19 35 22
95 22 64 0 75 -4 100 -26 19 -18 43 -29 79 -33 29 -4 67 -16 85 -27 18 -11 45
-22 60 -25 45 -8 66 -15 93 -34 14 -9 45 -25 70 -34 25 -10 52 -23 60 -30 8
-7 31 -19 50 -26 19 -7 43 -21 52 -31 10 -10 34 -21 53 -25 24 -4 41 -15 52
-35 10 -16 22 -29 29 -29 6 0 24 -12 40 -26 16 -14 43 -32 59 -39 17 -8 38
-22 47 -32 9 -10 38 -34 63 -53 26 -19 60 -46 75 -60 15 -14 49 -43 76 -65 26
-22 58 -50 70 -61 12 -12 34 -24 48 -28 14 -3 25 -11 23 -18 -1 -6 15 -20 35
-31 20 -11 39 -28 41 -38 3 -11 12 -19 20 -19 9 0 25 -15 36 -33 11 -18 31
-46 45 -62 14 -17 27 -33 27 -37 1 -5 2 -14 3 -20 0 -7 6 -13 12 -13 11 0 44
-29 44 -39 0 -3 14 -19 31 -35 17 -16 29 -31 27 -33 -1 -2 8 -21 21 -43 14
-22 24 -43 23 -48 -1 -4 3 -7 8 -7 6 0 15 -11 20 -25 5 -14 13 -25 18 -25 7 0
45 -57 41 -62 -4 -7 13 -48 20 -48 10 0 51 -74 51 -94 0 -9 4 -16 8 -16 9 0
93 -164 107 -209 4 -13 18 -39 31 -59 13 -19 22 -43 19 -52 -3 -9 4 -28 15
-43 11 -14 20 -30 20 -35 0 -6 4 -12 9 -14 5 -1 11 -26 14 -55 3 -31 13 -64
26 -82 22 -31 30 -58 36 -116 2 -32 24 -86 38 -96 5 -3 9 -10 8 -15 0 -5 2
-18 4 -29 2 -11 6 -44 9 -73 2 -28 10 -62 18 -75 21 -32 37 -101 42 -184 3
-39 12 -89 21 -110 9 -21 16 -40 15 -43 0 -3 4 -25 9 -50 6 -25 12 -97 15
-160 3 -63 7 -131 11 -150 3 -19 7 -46 9 -60 3 -14 5 -25 6 -25 2 0 4 -9 5
-20 2 -11 7 -47 11 -80 11 -76 12 -830 1 -909 -5 -32 -15 -78 -23 -102 -8 -23
-17 -87 -19 -141 -9 -173 -16 -230 -28 -250 -5 -7 -6 -13 -2 -13 3 0 -2 -14
-10 -30 -9 -18 -18 -69 -21 -128 -3 -53 -10 -115 -15 -137 -5 -22 -11 -48 -14
-57 -2 -9 -9 -26 -15 -38 -15 -29 -19 -50 -24 -147 -2 -45 -8 -88 -12 -95 -5
-7 -9 -18 -10 -24 -1 -6 -9 -37 -18 -68 -9 -31 -18 -98 -19 -149 -2 -51 -5
-96 -9 -102 -12 -22 -27 -83 -33 -135 -3 -30 -8 -66 -10 -80 -9 -40 -6 -160 4
-194 5 -17 17 -84 27 -149 15 -102 16 -123 4 -150 -7 -18 -13 -50 -13 -72 1
-42 44 -235 53 -235 3 0 15 18 28 41 18 31 22 49 17 79 -7 41 7 81 50 139 20
28 25 46 25 97 0 75 14 111 44 113 103 6 111 13 111 101 0 58 3 73 18 81 9 6
22 16 27 22 47 56 70 93 70 113 0 14 12 35 29 49 20 18 30 39 34 68 4 29 13
47 31 60 18 13 26 28 26 48 0 35 17 72 29 64 16 -9 33 24 35 67 1 24 8 44 15
46 29 10 50 41 45 67 -4 21 7 37 61 92 36 36 65 71 65 78 0 6 11 25 24 40 14
16 23 32 20 36 -2 4 14 26 36 49 22 22 40 46 40 51 0 6 10 19 23 29 13 10 29
37 36 59 6 22 19 46 29 53 9 7 25 30 34 51 10 20 22 37 28 37 6 0 18 16 26 37
9 20 29 49 45 65 16 16 29 35 29 42 0 7 9 21 20 31 10 9 25 34 31 54 7 20 22
49 35 64 13 16 25 36 26 45 0 9 2 22 2 28 1 6 13 29 28 50 15 21 28 53 30 71
2 18 14 44 26 58 12 14 22 27 22 30 0 3 0 6 1 8 0 1 2 27 3 58 3 39 11 68 31
99 22 35 28 57 31 124 4 78 17 139 35 161 14 18 20 66 24 195 2 69 7 136 10
150 8 35 14 104 31 345 3 44 6 213 6 376 -1 271 -2 299 -20 330 -15 27 -19 58
-21 149 -4 163 -12 214 -44 277 -10 19 -17 56 -17 92 0 33 -5 63 -10 66 -6 4
-8 10 -5 15 2 4 -5 20 -17 35 -12 15 -25 48 -30 74 -10 57 -12 63 -21 79 -5 6
-5 12 -2 12 3 0 -3 9 -14 21 -10 11 -24 41 -30 65 -6 24 -19 53 -28 64 -9 10
-18 29 -21 42 -4 26 -10 51 -12 58 -1 3 -2 8 -1 13 0 4 -3 7 -8 7 -5 0 -12 13
-16 30 -4 16 -11 32 -16 35 -5 4 -9 14 -9 24 0 10 -13 32 -29 49 -28 29 -67
92 -57 92 3 0 -6 12 -19 26 -14 15 -23 30 -20 34 2 3 -9 21 -25 39 -17 18 -30
36 -30 42 0 5 -5 9 -11 9 -15 0 -35 22 -44 50 -4 13 -18 33 -31 43 -13 10 -24
23 -24 30 0 15 -88 122 -157 191 -18 18 -33 35 -33 39 0 7 -197 207 -204 207
-5 0 -79 67 -148 132 -15 14 -41 32 -58 39 -16 8 -34 25 -40 39 -11 27 -86 87
-102 82 -5 -1 -7 2 -3 8 3 5 2 10 -3 10 -4 0 -17 8 -28 18 -10 10 -23 20 -29
22 -5 2 -23 9 -40 16 -16 7 -33 10 -37 8 -5 -3 -8 0 -8 7 0 7 -3 9 -7 6 -3 -4
-12 1 -19 11 -8 11 -27 17 -55 18 -30 1 -47 7 -60 22 -10 13 -38 26 -67 33
-34 7 -56 18 -66 33 -10 15 -28 25 -54 28 -22 3 -50 17 -67 32 -15 14 -40 26
-54 26 -14 0 -39 7 -56 16 -67 37 -82 43 -120 49 -21 3 -48 14 -60 24 -11 11
-55 26 -100 35 -44 9 -83 23 -87 30 -8 15 -33 22 -108 31 -71 8 -75 9 -104 33
-16 12 -36 22 -45 23 -78 3 -128 13 -150 28 -34 24 -52 29 -131 36 -36 3 -78
9 -95 12 -16 4 -33 7 -37 7 -14 2 -48 36 -48 49 0 7 13 21 30 30 20 12 33 31
40 57 6 23 20 45 33 52 12 6 23 11 25 10 9 -8 52 13 57 27 3 10 16 24 29 30
13 7 30 24 37 37 7 13 16 24 21 24 11 0 218 207 218 217 0 5 13 17 29 26 17
10 33 26 36 37 4 11 10 20 14 20 3 0 28 20 54 45 27 25 46 45 43 45 -3 0 29
34 71 75 42 41 78 75 80 75 2 0 18 15 36 33 19 17 53 49 78 71 24 21 76 67
114 103 151 141 226 209 265 243 23 19 54 47 68 61 15 14 37 31 50 38 12 7 20
16 17 22 -4 5 -2 9 3 9 13 0 132 116 132 129 0 6 8 11 18 11 11 0 24 11 30 25
6 14 16 25 21 25 13 0 221 203 221 215 0 6 10 17 23 25 22 14 27 16 47 19 6 0
64 54 130 119 65 64 125 122 132 129 7 6 35 34 61 62 27 28 52 51 56 51 4 0
14 11 21 25 7 14 19 25 26 25 7 0 55 42 107 93 53 50 102 98 109 104 7 7 19
18 26 25 7 7 30 29 51 48 95 87 221 214 221 222 0 5 17 26 38 47 20 20 52 55
69 77 18 21 46 55 63 74 16 19 32 43 36 53 3 9 9 17 14 17 4 0 17 19 28 43 11
23 30 52 41 64 12 12 21 27 21 32 0 5 11 22 24 38 13 15 30 44 39 64 8 20 24
45 35 55 11 10 23 33 26 50 4 18 16 40 27 50 10 9 24 34 29 56 6 21 20 46 31
57 11 10 23 37 26 59 3 25 16 52 34 72 18 19 29 42 29 60 0 20 9 35 29 49 21
15 31 33 36 60 4 22 17 50 29 63 13 13 26 40 30 60 4 21 18 51 32 68 14 16 28
45 31 62 3 18 9 35 14 36 5 2 7 8 3 13 -3 5 -1 9 4 9 15 0 42 64 42 98 0 16 6
32 13 35 19 7 47 69 47 105 0 16 7 35 16 42 23 20 32 42 39 96 4 27 15 61 26
77 18 24 29 68 43 165 2 17 14 53 26 78 12 25 24 66 26 92 9 108 13 129 32
172 20 46 31 122 33 240 1 42 7 71 17 83 8 9 12 17 8 17 -4 0 -2 8 3 18 19 35
29 209 34 556 4 220 6 250 21 258 9 5 13 14 9 21 -10 16 -14 60 -17 198 -2 63
-7 122 -12 130 -10 17 -14 31 -20 84 -3 22 -11 43 -17 47 -7 4 -8 8 -3 8 5 0
4 6 -2 13 -11 13 -13 24 -27 157 -4 36 -14 77 -21 93 -8 15 -11 27 -7 27 5 0
3 4 -4 8 -7 4 -14 23 -18 42 -12 74 -17 96 -27 123 -6 15 -14 27 -18 27 -5 0
-14 33 -20 73 -9 48 -20 81 -36 100 -13 16 -24 34 -25 40 -2 46 -11 71 -32 97
-14 16 -28 48 -32 70 -4 26 -15 46 -30 56 -15 10 -25 29 -29 56 -4 26 -15 48
-31 59 -13 11 -26 32 -30 47 -3 15 -19 43 -35 62 -17 19 -30 41 -30 47 0 7
-11 20 -24 28 -13 9 -27 28 -31 42 -6 26 -46 80 -102 139 -18 18 -33 38 -33
44 0 5 -6 10 -14 10 -8 0 -20 14 -28 30 -7 17 -21 33 -31 36 -9 3 -24 19 -32
35 -9 16 -22 29 -30 29 -7 0 -22 14 -32 30 -9 17 -21 30 -26 30 -5 0 -23 15
-40 33 -28 28 -92 85 -185 165 -36 30 -42 35 -74 51 -16 8 -28 18 -28 23 0 4
-15 14 -32 22 -18 7 -44 25 -57 40 -14 14 -32 26 -42 26 -10 0 -30 11 -45 25
-15 14 -38 28 -51 31 -13 4 -23 9 -23 13 0 10 -83 51 -102 51 -8 0 -29 11 -47
25 -19 13 -55 27 -80 30 -25 4 -57 15 -71 24 -32 23 -56 31 -104 38 -22 3 -56
16 -75 28 -23 15 -58 25 -96 29 -44 4 -63 11 -75 26 -13 17 -93 40 -142 40 -5
0 -8 6 -8 14 0 25 -27 36 -96 40 -38 2 -82 11 -99 19 -16 9 -39 14 -51 11 -12
-3 -32 -1 -44 6 -12 6 -82 13 -165 14 -123 3 -150 6 -188 25 -25 12 -58 25
-74 28 -24 4 -771 11 -776 6z"/>
</g>
</svg>
